<svg xmlns="http://www.w3.org/2000/svg" xmlns:v="https://svgstorm.com"
viewBox = "0 0 208 118"
width="208"
height="118">
<g fill="None" fill-opacity="0.0" stroke="#000000" stroke-opacity="0.00" stroke-width="0.3"><path d="
M 0.00 49.00 
C 0.50 49.00 1.00 49.00 1.00 49.00
C 2.13 19.26 38.47 15.30 61.00 23.00
C 62.26 16.51 63.33 12.94 59.23 6.77 C 55.13 0.60 66.11 -0.11 71.00 1.00
C 72.03 7.43 67.64 14.44 70.00 20.00
C 72.93 13.55 81.93 7.58 90.00 11.00 C 98.07 14.42 105.84 11.52 112.00 7.00
C 110.43 16.09 102.28 23.77 93.97 26.97 C 85.67 30.18 68.60 33.70 65.00 24.00
C 60.09 30.03 50.92 24.57 42.99 24.01 C 35.06 23.44 25.34 23.72 17.92 27.92 C 10.51 32.12 7.23 38.05 5.07 46.07 C 2.91 54.10 4.12 65.15 5.93 73.07 C 7.73 81.00 8.88 89.77 13.31 96.69 C 17.73 103.62 21.36 108.57 29.08 111.92 C 36.79 115.27 45.52 113.12 52.75 108.75 C 59.97 104.37 67.69 105.33 75.23 110.77 C 82.77 116.21 90.49 110.42 97.75 106.75 C 105.01 103.09 98.28 115.20 89.98 115.98 C 81.67 116.75 73.81 115.65 65.98 111.02 C 58.14 106.40 51.91 116.65 43.98 116.98 C 36.04 117.30 25.12 116.94 19.25 110.75 C 13.39 104.55 9.63 100.12 6.69 92.31 C 3.76 84.49 0.86 75.75 1.00 67.00
C 1.00 67.04 0.00 67.00 0.00 67.00
L 0.00 118.00
L 208.00 118.00
L 208.00 78.00
C 202.17 78.60 194.82 82.03 189.25 77.75 C 183.69 73.46 188.18 62.38 193.00 59.00
C 189.58 59.71 187.20 56.10 188.00 53.00
C 188.04 52.50 188.00 52.00 188.00 52.00
C 188.17 49.24 191.34 47.01 194.00 47.00
C 194.76 45.69 197.02 45.87 198.00 47.00
C 205.90 46.02 205.00 58.25 205.00 63.00
C 205.00 63.98 204.90 65.03 205.00 66.00
C 205.20 67.96 205.61 72.03 208.00 72.00
L 208.00 0.00
L 0.00 0.00
L 0.00 49.00
M 30.00 33.00 
C 25.96 44.90 28.88 59.08 28.00 72.00
C 35.00 73.44 36.98 56.40 43.00 67.00
C 42.18 63.25 46.84 61.93 48.00 59.00
C 41.17 60.12 40.93 48.66 47.23 47.23 C 53.53 45.80 60.41 48.43 59.99 56.01 C 59.57 63.59 62.06 66.67 62.97 74.03 C 63.87 81.40 55.91 78.24 50.92 79.92 C 45.93 81.60 39.80 72.85 41.00 68.00
C 43.09 83.83 26.25 79.72 17.00 79.00
C 17.53 72.34 19.03 66.09 18.00 59.00 C 16.97 51.91 19.92 45.31 18.00 38.00 C 16.08 30.69 23.86 30.96 30.00 33.00
M 89.00 38.00 
C 83.38 41.80 87.44 52.99 85.00 58.00 C 82.56 63.01 90.17 78.72 90.97 67.97 C 91.78 57.23 97.02 57.75 98.00 67.00 C 98.98 76.25 93.82 79.22 87.00 80.00 C 80.18 80.78 75.81 73.74 75.02 67.98 C 74.24 62.21 74.04 52.61 75.93 46.93 C 77.81 41.25 77.92 34.59 85.08 32.08 C 92.24 29.57 99.49 33.77 97.98 43.02 C 96.46 52.27 89.52 44.75 89.00 38.00
M 130.00 79.00 
C 125.69 79.57 122.22 80.46 118.00 78.00
C 121.26 65.35 121.26 48.65 118.00 36.00
C 129.02 26.36 129.72 38.18 129.00 48.00 C 128.28 57.82 128.85 69.44 130.00 79.00
M 182.00 32.00 
C 187.80 33.81 182.75 43.92 177.00 42.00 C 171.24 40.07 175.89 30.09 182.00 32.00
M 117.00 60.00 
C 117.14 62.60 117.18 65.40 117.00 68.00
C 116.42 76.52 107.02 84.82 102.08 75.92 C 97.14 67.02 96.36 60.06 101.92 50.92 C 107.49 41.79 116.53 51.27 117.00 60.00
M 133.00 55.00 
C 132.81 54.59 133.00 54.00 133.00 54.00
C 134.26 40.48 148.57 49.62 148.99 58.01 C 149.41 66.40 149.46 80.39 139.00 80.00 C 128.53 79.60 128.97 58.08 133.00 55.00
M 170.00 57.00 
C 170.29 57.92 170.87 58.59 171.00 60.00
C 171.57 66.41 172.13 72.66 173.00 79.00
C 165.36 79.00 158.40 80.23 151.00 79.00
C 155.40 70.91 148.15 57.35 152.26 50.26 C 156.37 43.16 172.57 47.21 170.00 57.00
M 185.00 79.00 
C 181.25 79.84 177.96 79.45 174.00 79.00
C 174.83 70.55 176.98 59.75 173.00 52.00
C 178.54 45.84 185.13 46.08 184.00 55.00 C 182.87 63.92 184.24 70.70 185.00 79.00
M 31.00 89.00 
C 35.87 86.52 42.01 87.57 39.00 94.00
C 38.91 88.22 53.05 84.30 50.00 92.00
C 52.49 88.48 56.44 87.28 61.00 88.00
C 61.31 91.92 59.05 95.14 59.00 99.00
C 55.20 98.52 48.14 99.93 50.00 93.00
C 51.34 98.69 41.58 108.55 39.00 100.00
C 40.97 100.43 44.14 102.13 45.00 99.00
C 42.28 99.48 40.51 97.60 39.00 96.00
C 37.34 101.34 25.81 99.73 29.00 92.00
C 22.41 91.07 23.83 98.36 19.00 99.00
C 20.26 94.07 20.27 88.83 22.00 84.00
C 26.38 83.27 30.56 84.07 31.00 89.00
M 127.00 92.00 
C 127.20 92.32 127.95 93.06 128.00 93.00
C 130.33 90.04 132.76 78.32 138.00 86.00
C 130.34 84.64 132.11 99.56 124.00 99.00
C 126.13 94.23 119.25 84.86 126.00 84.00
C 126.17 86.72 125.39 89.67 127.00 92.00
M 189.00 84.00 
C 190.21 85.21 187.94 88.27 186.32 86.66 C 184.70 85.05 187.88 82.88 189.00 84.00
M 199.00 94.00 
C 200.50 90.17 201.97 86.89 207.00 87.00
C 206.63 91.20 200.00 93.33 202.00 99.00
C 197.27 95.41 199.56 96.65 193.92 98.92 C 188.29 101.20 187.12 91.35 190.75 88.75 C 194.39 86.16 200.94 87.84 199.00 94.00
M 80.00 88.00 
C 79.58 91.72 81.76 99.37 76.00 99.00
C 75.69 95.86 78.55 92.81 77.00 90.00
C 72.00 91.23 75.65 99.66 70.00 99.00
C 70.45 96.47 73.00 90.52 69.00 90.00
C 66.63 92.69 69.01 99.57 64.00 99.00
C 62.30 87.98 70.65 86.46 80.00 88.00
M 83.00 95.00 
C 84.01 98.58 87.54 95.08 89.00 97.00
C 84.94 104.15 75.54 93.29 82.77 88.77 C 90.00 84.25 92.64 96.58 83.00 95.00
M 100.00 88.00 
C 99.58 91.72 101.76 99.37 96.00 99.00
C 96.55 96.36 98.33 92.14 96.00 90.00
C 91.37 91.33 95.18 98.93 90.00 99.00
C 89.52 95.13 91.71 91.95 91.00 88.00
C 94.00 88.00 97.00 88.00 100.00 88.00
M 110.00 88.00 
C 114.82 91.36 108.33 101.97 102.78 98.22 C 97.23 94.47 103.80 83.68 110.00 88.00
M 119.00 88.00 
C 117.20 91.03 113.94 89.97 117.30 93.70 C 120.66 97.44 113.47 100.07 111.00 99.00
C 112.21 95.91 116.71 97.20 112.75 93.25 C 108.79 89.29 116.17 86.65 119.00 88.00
M 138.00 91.00 
C 137.82 91.38 136.09 91.77 136.00 92.00
C 135.54 94.44 137.21 99.30 133.00 99.00
C 132.32 95.06 134.03 91.79 134.00 88.00
C 135.00 88.00 136.00 88.00 137.00 88.00
C 137.50 88.01 138.00 88.00 138.00 88.00
C 140.58 88.86 139.67 90.64 141.00 93.00
C 143.49 92.32 142.99 89.00 145.00 88.00
C 147.81 90.95 150.65 86.80 155.00 88.00
C 156.77 93.30 152.12 93.86 149.00 95.00
C 148.52 99.23 153.15 94.58 154.00 97.00
C 151.21 102.14 143.76 97.04 146.00 92.00
C 143.04 93.76 143.28 99.64 139.00 99.00
C 139.59 96.09 137.41 93.94 138.00 91.00
M 175.00 91.00 
C 179.76 85.00 184.49 91.27 189.00 88.00
C 186.32 92.77 189.45 103.88 181.00 103.00
C 182.90 99.74 185.76 95.73 185.00 91.00
C 184.00 94.42 179.98 93.27 178.00 95.00
C 178.62 98.66 181.94 94.79 183.00 97.00
C 180.80 101.70 173.14 97.82 175.00 93.00
C 173.32 94.86 174.68 100.27 170.00 99.00
C 170.39 95.94 172.50 93.33 172.00 90.00
C 165.79 89.29 170.04 101.29 164.00 98.00
C 165.05 95.52 165.95 92.36 165.00 90.00
C 160.00 91.23 163.65 99.66 158.00 99.00
C 159.35 95.52 158.65 91.50 160.00 88.00
C 164.14 89.86 173.41 84.66 175.00 91.00 Z"/>
</g>
<g fill="None" fill-opacity="0.0" stroke="#3A743A" stroke-opacity="0.75" stroke-width="0.3"><path d="
M 1.00 49.00 
C 0.77 54.98 1.00 61.01 1.00 67.00
C 0.86 75.75 3.76 84.49 6.69 92.31 C 9.63 100.12 13.39 104.55 19.25 110.75 C 25.12 116.94 36.04 117.30 43.98 116.98 C 51.91 116.65 58.14 106.40 65.98 111.02 C 73.81 115.65 81.67 116.75 89.98 115.98 C 98.28 115.20 105.01 103.09 97.75 106.75 C 90.49 110.42 82.77 116.21 75.23 110.77 C 67.69 105.33 59.97 104.37 52.75 108.75 C 45.52 113.12 36.79 115.27 29.08 111.92 C 21.36 108.57 17.73 103.62 13.31 96.69 C 8.88 89.77 7.73 81.00 5.93 73.07 C 4.12 65.15 2.91 54.10 5.07 46.07 C 7.23 38.05 10.51 32.12 17.92 27.92 C 25.34 23.72 35.06 23.44 42.99 24.01 C 50.92 24.57 60.09 30.03 65.00 24.00
C 68.60 33.70 85.67 30.18 93.97 26.97 C 102.28 23.77 110.43 16.09 112.00 7.00
C 105.84 11.52 98.07 14.42 90.00 11.00 C 81.93 7.58 72.93 13.55 70.00 20.00
C 67.64 14.44 72.03 7.43 71.00 1.00
C 66.11 -0.11 55.13 0.60 59.23 6.77 C 63.33 12.94 62.26 16.51 61.00 23.00
C 38.47 15.30 2.13 19.26 1.00 49.00
M 65.00 11.00 
C 61.20 3.55 68.29 4.55 65.00 11.00
M 67.00 11.00 
C 67.06 15.33 63.15 12.49 67.00 11.00
M 103.00 16.00 
C 95.83 26.15 82.43 28.37 71.00 26.00
C 74.18 9.91 91.43 15.37 103.00 16.00
M 65.00 24.00 
C 62.21 18.74 68.76 19.21 65.00 24.00 Z"/>
</g>
<g fill="None" fill-opacity="0.0" stroke="#000000" stroke-opacity="0.00" stroke-width="0.3"><path d="
M 65.00 11.00 
C 68.29 4.55 61.20 3.55 65.00 11.00 Z"/>
</g>
<g fill="None" fill-opacity="0.0" stroke="#3B763B" stroke-opacity="0.53" stroke-width="0.3"><path d="
M 67.00 11.00 
C 63.15 12.49 67.06 15.33 67.00 11.00 Z"/>
</g>
<g fill="None" fill-opacity="0.0" stroke="#A2C963" stroke-opacity="1.00" stroke-width="0.3"><path d="
M 103.00 16.00 
C 91.43 15.37 74.18 9.91 71.00 26.00
C 82.43 28.37 95.83 26.15 103.00 16.00 Z"/>
</g>
<g fill="None" fill-opacity="0.0" stroke="#3A7639" stroke-opacity="0.42" stroke-width="0.3"><path d="
M 65.00 24.00 
C 68.76 19.21 62.21 18.74 65.00 24.00 Z"/>
</g>
<g fill="None" fill-opacity="0.0" stroke="#447737" stroke-opacity="0.72" stroke-width="0.3"><path d="
M 30.00 33.00 
C 23.86 30.96 16.08 30.69 18.00 38.00 C 19.92 45.31 16.97 51.91 18.00 59.00 C 19.03 66.09 17.53 72.34 17.00 79.00
C 26.25 79.72 43.09 83.83 41.00 68.00
C 39.80 72.85 45.93 81.60 50.92 79.92 C 55.91 78.24 63.87 81.40 62.97 74.03 C 62.06 66.67 59.57 63.59 59.99 56.01 C 60.41 48.43 53.53 45.80 47.23 47.23 C 40.93 48.66 41.17 60.12 48.00 59.00
C 46.84 61.93 42.18 63.25 43.00 67.00
C 36.98 56.40 35.00 73.44 28.00 72.00
C 28.88 59.08 25.96 44.90 30.00 33.00
M 28.00 34.00 
C 22.64 43.78 28.57 51.94 26.00 63.00 C 23.43 74.06 33.61 77.50 38.00 66.00
C 40.39 69.36 37.28 74.14 37.00 78.00
C 31.31 76.53 25.05 77.08 19.00 77.00
C 20.70 63.23 20.60 47.77 19.00 34.00
C 22.00 34.00 25.00 34.00 28.00 34.00
M 53.00 59.00 
C 52.96 58.65 52.35 58.13 52.00 58.00
C 49.37 56.98 51.33 58.12 51.00 56.00
C 50.81 54.77 48.80 53.30 51.00 52.00
C 51.37 51.78 52.00 52.00 52.00 52.00
C 50.89 51.16 49.70 50.68 48.00 51.00
C 49.40 53.56 49.25 57.95 45.00 57.00
C 42.33 50.27 51.08 46.09 55.74 50.26 C 60.41 54.42 57.09 62.87 59.00 68.00 C 60.91 73.13 60.16 81.03 55.25 75.75 C 50.34 70.47 56.54 62.98 53.00 59.00
M 51.00 60.00 
C 48.28 64.21 44.89 75.66 54.00 74.00
C 44.34 86.42 39.42 62.70 51.00 60.00
M 52.00 65.00 
C 52.00 67.67 52.00 70.33 52.00 73.00
C 50.57 71.95 49.77 69.90 50.00 68.00
C 49.73 65.95 49.03 66.48 51.00 65.00
C 51.27 64.80 51.82 64.27 52.00 64.00
C 53.33 60.25 52.03 64.43 52.00 65.00 Z"/>
</g>
<g fill="None" fill-opacity="0.0" stroke="#427536" stroke-opacity="0.72" stroke-width="0.3"><path d="
M 89.00 38.00 
C 89.52 44.75 96.46 52.27 97.98 43.02 C 99.49 33.77 92.24 29.57 85.08 32.08 C 77.92 34.59 77.81 41.25 75.93 46.93 C 74.04 52.61 74.24 62.21 75.02 67.98 C 75.81 73.74 80.18 80.78 87.00 80.00 C 93.82 79.22 98.98 76.25 98.00 67.00 C 97.02 57.75 91.78 57.23 90.97 67.97 C 90.17 78.72 82.56 63.01 85.00 58.00 C 87.44 52.99 83.38 41.80 89.00 38.00
M 94.00 33.00 
C 94.40 36.73 98.43 44.20 94.00 46.00
C 93.87 38.36 85.04 32.51 84.67 42.67 C 84.30 52.84 82.70 58.27 84.33 68.67 C 85.96 79.07 97.36 68.99 93.00 61.00
C 100.23 62.28 94.90 87.92 82.93 77.07 C 70.95 66.22 73.79 31.94 94.00 33.00 Z"/>
</g>
<g fill="None" fill-opacity="0.0" stroke="#3F7533" stroke-opacity="0.64" stroke-width="0.3"><path d="
M 130.00 79.00 
C 128.85 69.44 128.28 57.82 129.00 48.00 C 129.72 38.18 129.02 26.36 118.00 36.00
C 121.26 48.65 121.26 65.35 118.00 78.00
C 122.22 80.46 125.69 79.57 130.00 79.00
M 127.00 34.00 
C 126.30 41.32 127.93 50.90 127.00 58.00 C 126.07 65.10 131.13 78.41 121.00 77.00
C 123.84 70.02 120.60 60.22 122.00 53.00 C 123.40 45.78 117.16 34.53 127.00 34.00 Z"/>
</g>
<g fill="None" fill-opacity="0.0" stroke="#437838" stroke-opacity="0.71" stroke-width="0.3"><path d="
M 182.00 32.00 
C 175.89 30.09 171.24 40.07 177.00 42.00 C 182.75 43.92 187.80 33.81 182.00 32.00
M 182.00 34.00 
C 183.01 37.69 179.68 40.99 176.00 40.00
C 175.49 36.48 178.44 33.50 182.00 34.00 Z"/>
</g>
<g fill="None" fill-opacity="0.0" stroke="#9BC663" stroke-opacity="1.00" stroke-width="0.3"><path d="
M 94.00 33.00 
C 73.79 31.94 70.95 66.22 82.93 77.07 C 94.90 87.92 100.23 62.28 93.00 61.00
C 97.36 68.99 85.96 79.07 84.33 68.67 C 82.70 58.27 84.30 52.84 84.67 42.67 C 85.04 32.51 93.87 38.36 94.00 46.00
C 98.43 44.20 94.40 36.73 94.00 33.00 Z"/>
</g>
<g fill="None" fill-opacity="0.0" stroke="#A4CA66" stroke-opacity="1.00" stroke-width="0.3"><path d="
M 28.00 34.00 
C 25.00 34.00 22.00 34.00 19.00 34.00
C 20.60 47.77 20.70 63.23 19.00 77.00
C 25.05 77.08 31.31 76.53 37.00 78.00
C 37.28 74.14 40.39 69.36 38.00 66.00
C 33.61 77.50 23.43 74.06 26.00 63.00 C 28.57 51.94 22.64 43.78 28.00 34.00 Z"/>
</g>
<g fill="None" fill-opacity="0.0" stroke="#9BC463" stroke-opacity="1.00" stroke-width="0.3"><path d="
M 127.00 34.00 
C 117.16 34.53 123.40 45.78 122.00 53.00 C 120.60 60.22 123.84 70.02 121.00 77.00
C 131.13 78.41 126.07 65.10 127.00 58.00 C 127.93 50.90 126.30 41.32 127.00 34.00 Z"/>
</g>
<g fill="None" fill-opacity="0.0" stroke="#9EC968" stroke-opacity="1.00" stroke-width="0.3"><path d="
M 182.00 34.00 
C 178.44 33.50 175.49 36.48 176.00 40.00
C 179.68 40.99 183.01 37.69 182.00 34.00 Z"/>
</g>
<g fill="None" fill-opacity="0.0" stroke="#366C30" stroke-opacity="0.53" stroke-width="0.3"><path d="
M 194.00 47.00 
C 193.78 47.37 194.00 48.00 194.00 48.00
C 194.35 48.21 197.65 48.21 198.00 48.00
C 197.75 47.78 198.00 47.00 198.00 47.00
C 197.02 45.87 194.76 45.69 194.00 47.00 Z"/>
</g>
<g fill="None" fill-opacity="0.0" stroke="#407634" stroke-opacity="0.70" stroke-width="0.3"><path d="
M 117.00 68.00 
C 115.97 71.87 107.16 83.31 103.25 74.75 C 99.33 66.20 98.87 61.01 103.31 52.31 C 107.74 43.61 115.88 55.80 117.00 60.00
C 116.53 51.27 107.49 41.79 101.92 50.92 C 96.36 60.06 97.14 67.02 102.08 75.92 C 107.02 84.82 116.42 76.52 117.00 68.00 Z"/>
</g>
<g fill="None" fill-opacity="0.0" stroke="#3F7434" stroke-opacity="0.66" stroke-width="0.3"><path d="
M 133.00 54.00 
C 133.16 53.77 134.58 53.82 135.00 54.00
C 135.18 42.90 149.03 53.13 147.78 59.22 C 146.53 65.31 148.67 79.44 139.33 77.67 C 129.99 75.89 133.49 61.69 134.00 56.00
C 133.77 55.72 133.12 55.26 133.00 55.00
C 128.97 58.08 128.53 79.60 139.00 80.00 C 149.46 80.39 149.41 66.40 148.99 58.01 C 148.57 49.62 134.26 40.48 133.00 54.00 Z"/>
</g>
<g fill="None" fill-opacity="0.0" stroke="#417735" stroke-opacity="0.72" stroke-width="0.3"><path d="
M 171.00 60.00 
C 170.83 59.57 169.14 59.28 169.00 59.00
C 169.00 65.18 169.44 71.23 171.00 77.00
C 158.37 78.25 169.85 58.16 161.00 53.00
C 160.96 53.35 159.08 53.83 159.00 54.00
C 160.05 61.53 157.42 69.89 160.00 77.00
C 147.63 77.98 157.69 59.19 153.00 52.00
C 154.67 50.89 156.13 49.70 158.00 49.00
C 159.11 49.47 159.10 51.14 160.00 52.00
C 160.00 49.42 164.02 48.09 165.74 50.26 C 167.46 52.42 168.03 55.77 169.00 58.00
C 169.12 57.74 169.96 57.35 170.00 57.00
C 172.57 47.21 156.37 43.16 152.26 50.26 C 148.15 57.35 155.40 70.91 151.00 79.00
C 158.40 80.23 165.36 79.00 173.00 79.00
C 172.13 72.66 171.57 66.41 171.00 60.00
M 162.00 56.00 
C 161.83 62.45 164.80 70.12 162.00 76.00
C 160.42 69.99 160.27 61.60 162.00 56.00 Z"/>
</g>
<g fill="None" fill-opacity="0.0" stroke="#417537" stroke-opacity="0.67" stroke-width="0.3"><path d="
M 185.00 79.00 
C 184.24 70.70 182.87 63.92 184.00 55.00 C 185.13 46.08 178.54 45.84 173.00 52.00
C 176.98 59.75 174.83 70.55 174.00 79.00
C 177.96 79.45 181.25 79.84 185.00 79.00
M 182.00 49.00 
C 181.95 54.42 182.07 60.66 182.00 66.00 C 181.93 71.34 183.96 79.16 176.00 77.00
C 177.65 69.23 177.65 59.74 176.00 52.00
C 177.95 50.82 179.58 49.02 182.00 49.00 Z"/>
</g>
<g fill="None" fill-opacity="0.0" stroke="#477736" stroke-opacity="0.75" stroke-width="0.3"><path d="
M 188.00 52.00 
C 188.16 51.77 189.70 52.24 190.00 52.00
C 191.37 50.90 192.77 49.10 194.00 48.00
C 194.00 48.00 193.78 47.37 194.00 47.00
C 191.34 47.01 188.17 49.24 188.00 52.00 Z"/>
</g>
<g fill="None" fill-opacity="0.0" stroke="#417832" stroke-opacity="0.71" stroke-width="0.3"><path d="
M 198.00 48.00 
C 202.96 52.45 202.66 57.57 205.00 63.00
C 205.00 58.25 205.90 46.02 198.00 47.00
C 198.00 47.00 197.75 47.78 198.00 48.00 Z"/>
</g>
<g fill="None" fill-opacity="0.0" stroke="#98C464" stroke-opacity="1.00" stroke-width="0.3"><path d="
M 190.00 52.00 
C 190.34 52.26 189.87 54.55 190.00 55.00
C 193.75 58.88 194.93 53.77 192.00 51.00
C 199.27 48.02 198.47 59.60 198.99 64.01 C 199.52 68.42 199.74 83.67 206.00 75.00
C 203.28 73.60 203.18 68.09 205.00 66.00
C 204.90 65.03 205.00 63.98 205.00 63.00
C 202.66 57.57 202.96 52.45 198.00 48.00
C 197.65 48.21 194.35 48.21 194.00 48.00
C 192.77 49.10 191.37 50.90 190.00 52.00 Z"/>
</g>
<g fill="None" fill-opacity="0.0" stroke="#3A713B" stroke-opacity="0.24" stroke-width="0.3"><path d="
M 0.00 67.00 
C 0.00 67.00 1.00 67.04 1.00 67.00
C 1.00 61.01 0.77 54.98 1.00 49.00
C 1.00 49.00 0.50 49.00 0.00 49.00
L 0.00 67.00 Z"/>
</g>
<g fill="None" fill-opacity="0.0" stroke="#9AC666" stroke-opacity="1.00" stroke-width="0.3"><path d="
M 52.00 52.00 
C 54.56 54.26 52.93 56.90 53.00 59.00
C 56.54 62.98 50.34 70.47 55.25 75.75 C 60.16 81.03 60.91 73.13 59.00 68.00 C 57.09 62.87 60.41 54.42 55.74 50.26 C 51.08 46.09 42.33 50.27 45.00 57.00
C 49.25 57.95 49.40 53.56 48.00 51.00
C 49.70 50.68 50.89 51.16 52.00 52.00 Z"/>
</g>
<g fill="None" fill-opacity="0.0" stroke="#97C364" stroke-opacity="1.00" stroke-width="0.3"><path d="
M 117.00 68.00 
C 117.18 65.40 117.14 62.60 117.00 60.00
C 115.88 55.80 107.74 43.61 103.31 52.31 C 98.87 61.01 99.33 66.20 103.25 74.75 C 107.16 83.31 115.97 71.87 117.00 68.00
M 104.00 59.00 
C 103.99 58.50 104.00 58.00 104.00 58.00
C 102.42 48.65 109.52 56.84 110.77 60.23 C 112.02 63.62 114.33 74.25 109.32 72.66 C 104.31 71.07 104.08 62.52 104.00 59.00 Z"/>
</g>
<g fill="None" fill-opacity="0.0" stroke="#9CC665" stroke-opacity="1.00" stroke-width="0.3"><path d="
M 135.00 54.00 
C 135.26 54.11 135.87 54.73 136.00 55.00
C 141.53 49.78 146.36 68.12 145.00 73.00
C 137.68 73.45 137.07 63.36 136.00 58.00
C 135.71 57.33 134.47 56.58 134.00 56.00
C 133.49 61.69 129.99 75.89 139.33 77.67 C 148.67 79.44 146.53 65.31 147.78 59.22 C 149.03 53.13 135.18 42.90 135.00 54.00 Z"/>
</g>
<g fill="None" fill-opacity="0.0" stroke="#A2CC68" stroke-opacity="1.00" stroke-width="0.3"><path d="
M 159.00 54.00 
C 158.85 52.95 157.09 50.73 158.00 49.00
C 156.13 49.70 154.67 50.89 153.00 52.00
C 157.69 59.19 147.63 77.98 160.00 77.00
C 157.42 69.89 160.05 61.53 159.00 54.00 Z"/>
</g>
<g fill="None" fill-opacity="0.0" stroke="#5B8E45" stroke-opacity="1.00" stroke-width="0.3"><path d="
M 159.00 54.00 
C 159.08 53.83 160.96 53.35 161.00 53.00
C 160.73 52.80 160.26 52.25 160.00 52.00
C 159.10 51.14 159.11 49.47 158.00 49.00
C 157.09 50.73 158.85 52.95 159.00 54.00 Z"/>
</g>
<g fill="None" fill-opacity="0.0" stroke="#9EC869" stroke-opacity="1.00" stroke-width="0.3"><path d="
M 160.00 52.00 
C 160.26 52.25 160.73 52.80 161.00 53.00
C 169.85 58.16 158.37 78.25 171.00 77.00
C 169.44 71.23 169.00 65.18 169.00 59.00
C 169.00 58.50 169.00 58.00 169.00 58.00
C 168.03 55.77 167.46 52.42 165.74 50.26 C 164.02 48.09 160.00 49.42 160.00 52.00 Z"/>
</g>
<g fill="None" fill-opacity="0.0" stroke="#A0C865" stroke-opacity="1.00" stroke-width="0.3"><path d="
M 182.00 49.00 
C 179.58 49.02 177.95 50.82 176.00 52.00
C 177.65 59.74 177.65 69.23 176.00 77.00
C 183.96 79.16 181.93 71.34 182.00 66.00 C 182.07 60.66 181.95 54.42 182.00 49.00 Z"/>
</g>
<g fill="None" fill-opacity="0.0" stroke="#427734" stroke-opacity="0.76" stroke-width="0.3"><path d="
M 190.00 55.00 
C 189.58 54.56 188.26 53.50 188.00 53.00
C 187.20 56.10 189.58 59.71 193.00 59.00
C 188.18 62.38 183.69 73.46 189.25 77.75 C 194.82 82.03 202.17 78.60 208.00 78.00
L 208.00 77.00
C 206.66 76.53 206.43 73.42 208.00 73.00
L 208.00 72.00
C 205.61 72.03 205.20 67.96 205.00 66.00
C 203.18 68.09 203.28 73.60 206.00 75.00
C 199.74 83.67 199.52 68.42 198.99 64.01 C 198.47 59.60 199.27 48.02 192.00 51.00
C 194.93 53.77 193.75 58.88 190.00 55.00
M 196.00 58.00 
C 195.07 60.90 192.98 56.16 195.00 56.00
C 194.97 52.69 198.17 55.20 196.00 58.00
M 196.00 60.00 
C 192.92 64.11 190.03 75.68 199.00 74.00
C 189.60 86.78 184.13 61.62 196.00 60.00
M 196.00 72.00 
C 194.19 70.17 194.77 66.20 196.00 64.00
C 197.50 65.64 197.72 70.43 196.00 72.00 Z"/>
</g>
<g fill="None" fill-opacity="0.0" stroke="#39712F" stroke-opacity="0.33" stroke-width="0.3"><path d="
M 51.00 56.00 
C 51.20 55.69 51.88 55.26 52.00 55.00
C 51.93 54.39 50.86 52.45 51.00 52.00
C 48.80 53.30 50.81 54.77 51.00 56.00 Z"/>
</g>
<g fill="None" fill-opacity="0.0" stroke="#54833A" stroke-opacity="0.97" stroke-width="0.3"><path d="
M 52.00 55.00 
C 52.08 55.76 51.67 57.32 52.00 58.00
C 52.35 58.13 52.96 58.65 53.00 59.00
C 52.93 56.90 54.56 54.26 52.00 52.00
C 52.00 52.00 51.37 51.78 51.00 52.00
C 50.86 52.45 51.93 54.39 52.00 55.00 Z"/>
</g>
<g fill="None" fill-opacity="0.0" stroke="#5C8F44" stroke-opacity="0.96" stroke-width="0.3"><path d="
M 188.00 53.00 
C 188.26 53.50 189.58 54.56 190.00 55.00
C 189.87 54.55 190.34 52.26 190.00 52.00
C 189.70 52.24 188.16 51.77 188.00 52.00
C 188.00 52.00 188.04 52.50 188.00 53.00 Z"/>
</g>
<g fill="None" fill-opacity="0.0" stroke="#437630" stroke-opacity="0.74" stroke-width="0.3"><path d="
M 104.00 58.00 
C 104.16 57.77 105.80 58.24 106.00 58.00
C 107.90 55.65 111.27 66.95 111.00 71.00
C 107.45 68.92 107.56 64.33 106.00 61.00
C 105.66 60.43 104.29 59.55 104.00 59.00
C 104.08 62.52 104.31 71.07 109.32 72.66 C 114.33 74.25 112.02 63.62 110.77 60.23 C 109.52 56.84 102.42 48.65 104.00 58.00 Z"/>
</g>
<g fill="None" fill-opacity="0.0" stroke="#427832" stroke-opacity="0.74" stroke-width="0.3"><path d="
M 136.00 55.00 
C 136.31 55.62 135.98 57.29 136.00 58.00
C 137.07 63.36 137.68 73.45 145.00 73.00
C 146.36 68.12 141.53 49.78 136.00 55.00
M 142.00 71.00 
C 139.37 65.97 138.15 60.50 137.00 55.00
C 140.51 58.80 144.52 66.08 142.00 71.00 Z"/>
</g>
<g fill="None" fill-opacity="0.0" stroke="#64984A" stroke-opacity="0.98" stroke-width="0.3"><path d="
M 133.00 55.00 
C 133.12 55.26 133.77 55.72 134.00 56.00
C 134.47 56.58 135.71 57.33 136.00 58.00
C 135.98 57.29 136.31 55.62 136.00 55.00
C 135.87 54.73 135.26 54.11 135.00 54.00
C 134.58 53.82 133.16 53.77 133.00 54.00
C 133.00 54.00 132.81 54.59 133.00 55.00 Z"/>
</g>
<g fill="None" fill-opacity="0.0" stroke="#37693C" stroke-opacity="0.19" stroke-width="0.3"><path d="
M 195.00 56.00 
C 195.00 56.33 196.34 56.95 196.00 58.00
C 198.17 55.20 194.97 52.69 195.00 56.00 Z"/>
</g>
<g fill="None" fill-opacity="0.0" stroke="#000000" stroke-opacity="0.00" stroke-width="0.3"><path d="
M 51.00 56.00 
C 51.33 58.12 49.37 56.98 52.00 58.00
C 51.67 57.32 52.08 55.76 52.00 55.00
C 51.88 55.26 51.20 55.69 51.00 56.00 Z"/>
</g>
<g fill="None" fill-opacity="0.0" stroke="#000000" stroke-opacity="0.00" stroke-width="0.3"><path d="
M 142.00 71.00 
C 144.52 66.08 140.51 58.80 137.00 55.00
C 138.15 60.50 139.37 65.97 142.00 71.00 Z"/>
</g>
<g fill="None" fill-opacity="0.0" stroke="#000000" stroke-opacity="0.00" stroke-width="0.3"><path d="
M 106.00 58.00 
C 106.28 58.22 105.94 60.60 106.00 61.00
C 107.56 64.33 107.45 68.92 111.00 71.00
C 111.27 66.95 107.90 55.65 106.00 58.00 Z"/>
</g>
<g fill="None" fill-opacity="0.0" stroke="#000000" stroke-opacity="0.00" stroke-width="0.3"><path d="
M 162.00 56.00 
C 160.27 61.60 160.42 69.99 162.00 76.00
C 164.80 70.12 161.83 62.45 162.00 56.00 Z"/>
</g>
<g fill="None" fill-opacity="0.0" stroke="#0C210C" stroke-opacity="0.05" stroke-width="0.3"><path d="
M 196.00 58.00 
C 196.34 56.95 195.00 56.33 195.00 56.00
C 192.98 56.16 195.07 60.90 196.00 58.00 Z"/>
</g>
<g fill="None" fill-opacity="0.0" stroke="#297424" stroke-opacity="0.25" stroke-width="0.3"><path d="
M 169.00 58.00 
C 169.00 58.00 169.00 58.50 169.00 59.00
C 169.14 59.28 170.83 59.57 171.00 60.00
C 170.87 58.59 170.29 57.92 170.00 57.00
C 169.96 57.35 169.12 57.74 169.00 58.00 Z"/>
</g>
<g fill="None" fill-opacity="0.0" stroke="#366432" stroke-opacity="0.30" stroke-width="0.3"><path d="
M 104.00 59.00 
C 104.29 59.55 105.66 60.43 106.00 61.00
C 105.94 60.60 106.28 58.22 106.00 58.00
C 105.80 58.24 104.16 57.77 104.00 58.00
C 104.00 58.00 103.99 58.50 104.00 59.00 Z"/>
</g>
<g fill="None" fill-opacity="0.0" stroke="#9BC665" stroke-opacity="1.00" stroke-width="0.3"><path d="
M 51.00 60.00 
C 39.42 62.70 44.34 86.42 54.00 74.00
C 44.89 75.66 48.28 64.21 51.00 60.00 Z"/>
</g>
<g fill="None" fill-opacity="0.0" stroke="#9AC667" stroke-opacity="1.00" stroke-width="0.3"><path d="
M 196.00 60.00 
C 184.13 61.62 189.60 86.78 199.00 74.00
C 190.03 75.68 192.92 64.11 196.00 60.00 Z"/>
</g>
<g fill="None" fill-opacity="0.0" stroke="#3C7232" stroke-opacity="0.50" stroke-width="0.3"><path d="
M 52.00 64.00 
C 52.23 64.36 52.00 65.00 52.00 65.00
C 52.03 64.43 53.33 60.25 52.00 64.00 Z"/>
</g>
<g fill="None" fill-opacity="0.0" stroke="#000000" stroke-opacity="0.00" stroke-width="0.3"><path d="
M 51.00 65.00 
C 50.85 65.49 50.02 67.87 50.00 68.00
C 49.77 69.90 50.57 71.95 52.00 73.00
C 52.00 70.33 52.00 67.67 52.00 65.00
C 52.00 65.00 52.23 64.36 52.00 64.00
C 51.82 64.27 51.27 64.80 51.00 65.00 Z"/>
</g>
<g fill="None" fill-opacity="0.0" stroke="#000000" stroke-opacity="0.00" stroke-width="0.3"><path d="
M 196.00 72.00 
C 197.72 70.43 197.50 65.64 196.00 64.00
C 194.77 66.20 194.19 70.17 196.00 72.00 Z"/>
</g>
<g fill="None" fill-opacity="0.0" stroke="#396B32" stroke-opacity="0.25" stroke-width="0.3"><path d="
M 50.00 68.00 
C 50.02 67.87 50.85 65.49 51.00 65.00
C 49.03 66.48 49.73 65.95 50.00 68.00 Z"/>
</g>
<g fill="None" fill-opacity="0.0" stroke="#3C7538" stroke-opacity="0.42" stroke-width="0.3"><path d="
M 208.00 77.00 
L 208.00 73.00
C 206.43 73.42 206.66 76.53 208.00 77.00 Z"/>
</g>
<g fill="None" fill-opacity="0.0" stroke="#E77238" stroke-opacity="0.58" stroke-width="0.3"><path d="
M 31.00 89.00 
C 30.56 84.07 26.38 83.27 22.00 84.00
C 20.27 88.83 20.26 94.07 19.00 99.00
C 23.83 98.36 22.41 91.07 29.00 92.00
C 25.81 99.73 37.34 101.34 39.00 96.00
C 40.51 97.60 42.28 99.48 45.00 99.00
C 44.14 102.13 40.97 100.43 39.00 100.00
C 41.58 108.55 51.34 98.69 50.00 93.00
C 48.14 99.93 55.20 98.52 59.00 99.00
C 59.05 95.14 61.31 91.92 61.00 88.00
C 56.44 87.28 52.49 88.48 50.00 92.00
C 53.05 84.30 38.91 88.22 39.00 94.00
C 42.01 87.57 35.87 86.52 31.00 89.00
M 26.00 86.00 
C 28.75 87.32 25.81 92.67 23.00 91.00
C 23.93 89.86 24.08 88.45 24.00 87.00
C 20.82 86.46 28.92 83.54 26.00 86.00
M 32.00 97.00 
C 31.76 94.42 32.45 91.14 35.00 90.00
C 37.53 91.97 35.40 97.31 32.00 97.00
M 47.00 90.00 
C 47.19 92.78 45.56 95.81 43.00 97.00
C 41.16 93.90 43.14 89.95 47.00 90.00
M 58.00 90.00 
C 58.14 92.76 56.13 95.53 54.00 97.00
C 52.08 94.25 54.42 89.79 58.00 90.00 Z"/>
</g>
<g fill="None" fill-opacity="0.0" stroke="#E5753C" stroke-opacity="0.56" stroke-width="0.3"><path d="
M 128.00 93.00 
C 127.36 97.49 126.95 91.76 127.00 92.00
C 125.39 89.67 126.17 86.72 126.00 84.00
C 119.25 84.86 126.13 94.23 124.00 99.00
C 132.11 99.56 130.34 84.64 138.00 86.00
C 132.76 78.32 130.33 90.04 128.00 93.00 Z"/>
</g>
<g fill="None" fill-opacity="0.0" stroke="#DE7742" stroke-opacity="0.41" stroke-width="0.3"><path d="
M 189.00 84.00 
C 187.88 82.88 184.70 85.05 186.32 86.66 C 187.94 88.27 190.21 85.21 189.00 84.00 Z"/>
</g>
<g fill="None" fill-opacity="0.0" stroke="#FC6E39" stroke-opacity="0.81" stroke-width="0.3"><path d="
M 24.00 87.00 
C 24.71 85.82 25.15 86.72 26.00 86.00
C 28.92 83.54 20.82 86.46 24.00 87.00 Z"/>
</g>
<g fill="None" fill-opacity="0.0" stroke="#000000" stroke-opacity="0.00" stroke-width="0.3"><path d="
M 24.00 87.00 
C 24.08 88.45 23.93 89.86 23.00 91.00
C 25.81 92.67 28.75 87.32 26.00 86.00
C 25.15 86.72 24.71 85.82 24.00 87.00 Z"/>
</g>
<g fill="None" fill-opacity="0.0" stroke="#EB7238" stroke-opacity="0.57" stroke-width="0.3"><path d="
M 199.00 94.00 
C 200.94 87.84 194.39 86.16 190.75 88.75 C 187.12 91.35 188.29 101.20 193.92 98.92 C 199.56 96.65 197.27 95.41 202.00 99.00
C 200.00 93.33 206.63 91.20 207.00 87.00
C 201.97 86.89 200.50 90.17 199.00 94.00
M 196.00 90.00 
C 196.56 92.90 195.61 97.06 192.00 97.00
C 191.72 94.03 191.51 89.00 196.00 90.00 Z"/>
</g>
<g fill="None" fill-opacity="0.0" stroke="#E77338" stroke-opacity="0.57" stroke-width="0.3"><path d="
M 80.00 88.00 
C 70.65 86.46 62.30 87.98 64.00 99.00
C 69.01 99.57 66.63 92.69 69.00 90.00
C 73.00 90.52 70.45 96.47 70.00 99.00
C 75.65 99.66 72.00 91.23 77.00 90.00
C 78.55 92.81 75.69 95.86 76.00 99.00
C 81.76 99.37 79.58 91.72 80.00 88.00 Z"/>
</g>
<g fill="None" fill-opacity="0.0" stroke="#EC753A" stroke-opacity="0.62" stroke-width="0.3"><path d="
M 83.00 95.00 
C 92.64 96.58 90.00 84.25 82.77 88.77 C 75.54 93.29 84.94 104.15 89.00 97.00
C 87.54 95.08 84.01 98.58 83.00 95.00
M 88.00 90.00 
C 85.72 94.57 82.30 89.25 88.00 90.00 Z"/>
</g>
<g fill="None" fill-opacity="0.0" stroke="#EC733B" stroke-opacity="0.58" stroke-width="0.3"><path d="
M 100.00 88.00 
C 97.00 88.00 94.00 88.00 91.00 88.00
C 91.71 91.95 89.52 95.13 90.00 99.00
C 95.18 98.93 91.37 91.33 96.00 90.00
C 98.33 92.14 96.55 96.36 96.00 99.00
C 101.76 99.37 99.58 91.72 100.00 88.00 Z"/>
</g>
<g fill="None" fill-opacity="0.0" stroke="#E87339" stroke-opacity="0.60" stroke-width="0.3"><path d="
M 110.00 88.00 
C 103.80 83.68 97.23 94.47 102.78 98.22 C 108.33 101.97 114.82 91.36 110.00 88.00
M 108.00 90.00 
C 108.56 92.90 107.61 97.06 104.00 97.00
C 103.72 94.03 103.51 89.00 108.00 90.00 Z"/>
</g>
<g fill="None" fill-opacity="0.0" stroke="#EB753D" stroke-opacity="0.59" stroke-width="0.3"><path d="
M 119.00 88.00 
C 116.17 86.65 108.79 89.29 112.75 93.25 C 116.71 97.20 112.21 95.91 111.00 99.00
C 113.47 100.07 120.66 97.44 117.30 93.70 C 113.94 89.97 117.20 91.03 119.00 88.00 Z"/>
</g>
<g fill="None" fill-opacity="0.0" stroke="#E9743B" stroke-opacity="0.57" stroke-width="0.3"><path d="
M 136.00 92.00 
C 136.23 90.77 136.71 89.32 137.00 88.00
C 136.00 88.00 135.00 88.00 134.00 88.00
C 134.03 91.79 132.32 95.06 133.00 99.00
C 137.21 99.30 135.54 94.44 136.00 92.00 Z"/>
</g>
<g fill="None" fill-opacity="0.0" stroke="#EA6E33" stroke-opacity="0.08" stroke-width="0.3"><path d="
M 136.00 92.00 
C 136.09 91.77 137.82 91.38 138.00 91.00
C 137.99 90.59 138.27 88.25 138.00 88.00
C 138.00 88.00 137.50 88.01 137.00 88.00
C 136.71 89.32 136.23 90.77 136.00 92.00 Z"/>
</g>
<g fill="None" fill-opacity="0.0" stroke="#E5753E" stroke-opacity="0.64" stroke-width="0.3"><path d="
M 138.00 91.00 
C 137.41 93.94 139.59 96.09 139.00 99.00
C 143.28 99.64 143.04 93.76 146.00 92.00
C 143.76 97.04 151.21 102.14 154.00 97.00
C 153.15 94.58 148.52 99.23 149.00 95.00
C 152.12 93.86 156.77 93.30 155.00 88.00
C 150.65 86.80 147.81 90.95 145.00 88.00
C 142.99 89.00 143.49 92.32 141.00 93.00
C 139.67 90.64 140.58 88.86 138.00 88.00
C 138.27 88.25 137.99 90.59 138.00 91.00
M 153.00 90.00 
C 150.72 94.57 147.30 89.25 153.00 90.00
M 141.00 93.00 
C 141.58 93.05 142.25 95.18 140.87 94.92 C 139.48 94.65 140.11 92.92 141.00 93.00 Z"/>
</g>
<g fill="None" fill-opacity="0.0" stroke="#EB743A" stroke-opacity="0.59" stroke-width="0.3"><path d="
M 175.00 91.00 
C 173.41 84.66 164.14 89.86 160.00 88.00
C 158.65 91.50 159.35 95.52 158.00 99.00
C 163.65 99.66 160.00 91.23 165.00 90.00
C 165.95 92.36 165.05 95.52 164.00 98.00
C 170.04 101.29 165.79 89.29 172.00 90.00
C 172.50 93.33 170.39 95.94 170.00 99.00
C 174.68 100.27 173.32 94.86 175.00 93.00
C 173.14 97.82 180.80 101.70 183.00 97.00
C 181.94 94.79 178.62 98.66 178.00 95.00
C 179.98 93.27 184.00 94.42 185.00 91.00
C 185.76 95.73 182.90 99.74 181.00 103.00
C 189.45 103.88 186.32 92.77 189.00 88.00
C 184.49 91.27 179.76 85.00 175.00 91.00
M 182.00 90.00 
C 179.72 94.57 176.30 89.25 182.00 90.00 Z"/>
</g>
<g fill="None" fill-opacity="0.0" stroke="#000000" stroke-opacity="0.00" stroke-width="0.3"><path d="
M 32.00 97.00 
C 35.40 97.31 37.53 91.97 35.00 90.00
C 32.45 91.14 31.76 94.42 32.00 97.00 Z"/>
</g>
<g fill="None" fill-opacity="0.0" stroke="#000000" stroke-opacity="0.00" stroke-width="0.3"><path d="
M 47.00 90.00 
C 43.14 89.95 41.16 93.90 43.00 97.00
C 45.56 95.81 47.19 92.78 47.00 90.00 Z"/>
</g>
<g fill="None" fill-opacity="0.0" stroke="#000000" stroke-opacity="0.00" stroke-width="0.3"><path d="
M 58.00 90.00 
C 54.42 89.79 52.08 94.25 54.00 97.00
C 56.13 95.53 58.14 92.76 58.00 90.00 Z"/>
</g>
<g fill="None" fill-opacity="0.0" stroke="#000000" stroke-opacity="0.00" stroke-width="0.3"><path d="
M 88.00 90.00 
C 82.30 89.25 85.72 94.57 88.00 90.00 Z"/>
</g>
<g fill="None" fill-opacity="0.0" stroke="#000000" stroke-opacity="0.00" stroke-width="0.3"><path d="
M 108.00 90.00 
C 103.51 89.00 103.72 94.03 104.00 97.00
C 107.61 97.06 108.56 92.90 108.00 90.00 Z"/>
</g>
<g fill="None" fill-opacity="0.0" stroke="#000000" stroke-opacity="0.00" stroke-width="0.3"><path d="
M 153.00 90.00 
C 147.30 89.25 150.72 94.57 153.00 90.00 Z"/>
</g>
<g fill="None" fill-opacity="0.0" stroke="#000000" stroke-opacity="0.00" stroke-width="0.3"><path d="
M 182.00 90.00 
C 176.30 89.25 179.72 94.57 182.00 90.00 Z"/>
</g>
<g fill="None" fill-opacity="0.0" stroke="#000000" stroke-opacity="0.00" stroke-width="0.3"><path d="
M 196.00 90.00 
C 191.51 89.00 191.72 94.03 192.00 97.00
C 195.61 97.06 196.56 92.90 196.00 90.00 Z"/>
</g>
<g fill="None" fill-opacity="0.0" stroke="#F56F31" stroke-opacity="0.27" stroke-width="0.3"><path d="
M 128.00 93.00 
C 127.95 93.06 127.20 92.32 127.00 92.00
C 126.95 91.76 127.36 97.49 128.00 93.00 Z"/>
</g>
<g fill="None" fill-opacity="0.0" stroke="#F17138" stroke-opacity="0.38" stroke-width="0.3"><path d="
M 141.00 93.00 
C 140.11 92.92 139.48 94.65 140.87 94.92 C 142.25 95.18 141.58 93.05 141.00 93.00 Z"/>
</g>
<g fill="#000000" fill-opacity="0.00" stroke="None"><path d="
M 0.00 49.00 
C 0.50 49.00 1.00 49.00 1.00 49.00
C 2.13 19.26 38.47 15.30 61.00 23.00
C 62.26 16.51 63.33 12.94 59.23 6.77 C 55.13 0.60 66.11 -0.11 71.00 1.00
C 72.03 7.43 67.64 14.44 70.00 20.00
C 72.93 13.55 81.93 7.58 90.00 11.00 C 98.07 14.42 105.84 11.52 112.00 7.00
C 110.43 16.09 102.28 23.77 93.97 26.97 C 85.67 30.18 68.60 33.70 65.00 24.00
C 60.09 30.03 50.92 24.57 42.99 24.01 C 35.06 23.44 25.34 23.72 17.92 27.92 C 10.51 32.12 7.23 38.05 5.07 46.07 C 2.91 54.10 4.12 65.15 5.93 73.07 C 7.73 81.00 8.88 89.77 13.31 96.69 C 17.73 103.62 21.36 108.57 29.08 111.92 C 36.79 115.27 45.52 113.12 52.75 108.75 C 59.97 104.37 67.69 105.33 75.23 110.77 C 82.77 116.21 90.49 110.42 97.75 106.75 C 105.01 103.09 98.28 115.20 89.98 115.98 C 81.67 116.75 73.81 115.65 65.98 111.02 C 58.14 106.40 51.91 116.65 43.98 116.98 C 36.04 117.30 25.12 116.94 19.25 110.75 C 13.39 104.55 9.63 100.12 6.69 92.31 C 3.76 84.49 0.86 75.75 1.00 67.00
C 1.00 67.04 0.00 67.00 0.00 67.00
L 0.00 118.00
L 208.00 118.00
L 208.00 78.00
C 202.17 78.60 194.82 82.03 189.25 77.75 C 183.69 73.46 188.18 62.38 193.00 59.00
C 189.58 59.71 187.20 56.10 188.00 53.00
C 188.04 52.50 188.00 52.00 188.00 52.00
C 188.17 49.24 191.34 47.01 194.00 47.00
C 194.76 45.69 197.02 45.87 198.00 47.00
C 205.90 46.02 205.00 58.25 205.00 63.00
C 205.00 63.98 204.90 65.03 205.00 66.00
C 205.20 67.96 205.61 72.03 208.00 72.00
L 208.00 0.00
L 0.00 0.00
L 0.00 49.00
M 30.00 33.00 
C 25.96 44.90 28.88 59.08 28.00 72.00
C 35.00 73.44 36.98 56.40 43.00 67.00
C 42.18 63.25 46.84 61.93 48.00 59.00
C 41.17 60.12 40.93 48.66 47.23 47.23 C 53.53 45.80 60.41 48.43 59.99 56.01 C 59.57 63.59 62.06 66.67 62.97 74.03 C 63.87 81.40 55.91 78.24 50.92 79.92 C 45.93 81.60 39.80 72.85 41.00 68.00
C 43.09 83.83 26.25 79.72 17.00 79.00
C 17.53 72.34 19.03 66.09 18.00 59.00 C 16.97 51.91 19.92 45.31 18.00 38.00 C 16.08 30.69 23.86 30.96 30.00 33.00
M 89.00 38.00 
C 83.38 41.80 87.44 52.99 85.00 58.00 C 82.56 63.01 90.17 78.72 90.97 67.97 C 91.78 57.23 97.02 57.75 98.00 67.00 C 98.98 76.25 93.82 79.22 87.00 80.00 C 80.18 80.78 75.81 73.74 75.02 67.98 C 74.24 62.21 74.04 52.61 75.93 46.93 C 77.81 41.25 77.92 34.59 85.08 32.08 C 92.24 29.57 99.49 33.77 97.98 43.02 C 96.46 52.27 89.52 44.75 89.00 38.00
M 130.00 79.00 
C 125.69 79.57 122.22 80.46 118.00 78.00
C 121.26 65.35 121.26 48.65 118.00 36.00
C 129.02 26.36 129.72 38.18 129.00 48.00 C 128.28 57.82 128.85 69.44 130.00 79.00
M 182.00 32.00 
C 187.80 33.81 182.75 43.92 177.00 42.00 C 171.24 40.07 175.89 30.09 182.00 32.00
M 117.00 60.00 
C 117.14 62.60 117.18 65.40 117.00 68.00
C 116.42 76.52 107.02 84.82 102.08 75.92 C 97.14 67.02 96.36 60.06 101.92 50.92 C 107.49 41.79 116.53 51.27 117.00 60.00
M 133.00 55.00 
C 132.81 54.59 133.00 54.00 133.00 54.00
C 134.26 40.48 148.57 49.62 148.99 58.01 C 149.41 66.40 149.46 80.39 139.00 80.00 C 128.53 79.60 128.97 58.08 133.00 55.00
M 170.00 57.00 
C 170.29 57.92 170.87 58.59 171.00 60.00
C 171.57 66.41 172.13 72.66 173.00 79.00
C 165.36 79.00 158.40 80.23 151.00 79.00
C 155.40 70.91 148.15 57.35 152.26 50.26 C 156.37 43.16 172.57 47.21 170.00 57.00
M 185.00 79.00 
C 181.25 79.84 177.96 79.45 174.00 79.00
C 174.83 70.55 176.98 59.75 173.00 52.00
C 178.54 45.84 185.13 46.08 184.00 55.00 C 182.87 63.92 184.24 70.70 185.00 79.00
M 31.00 89.00 
C 35.87 86.52 42.01 87.57 39.00 94.00
C 38.91 88.22 53.05 84.30 50.00 92.00
C 52.49 88.48 56.44 87.28 61.00 88.00
C 61.31 91.92 59.05 95.14 59.00 99.00
C 55.20 98.52 48.14 99.93 50.00 93.00
C 51.34 98.69 41.58 108.55 39.00 100.00
C 40.97 100.43 44.14 102.13 45.00 99.00
C 42.28 99.48 40.51 97.60 39.00 96.00
C 37.34 101.34 25.81 99.73 29.00 92.00
C 22.41 91.07 23.83 98.36 19.00 99.00
C 20.26 94.07 20.27 88.83 22.00 84.00
C 26.38 83.27 30.56 84.07 31.00 89.00
M 127.00 92.00 
C 127.20 92.32 127.95 93.06 128.00 93.00
C 130.33 90.04 132.76 78.32 138.00 86.00
C 130.34 84.64 132.11 99.56 124.00 99.00
C 126.13 94.23 119.25 84.86 126.00 84.00
C 126.17 86.72 125.39 89.67 127.00 92.00
M 189.00 84.00 
C 190.21 85.21 187.94 88.27 186.32 86.66 C 184.70 85.05 187.88 82.88 189.00 84.00
M 199.00 94.00 
C 200.50 90.17 201.97 86.89 207.00 87.00
C 206.63 91.20 200.00 93.33 202.00 99.00
C 197.27 95.41 199.56 96.65 193.92 98.92 C 188.29 101.20 187.12 91.35 190.75 88.75 C 194.39 86.16 200.94 87.84 199.00 94.00
M 80.00 88.00 
C 79.58 91.72 81.76 99.37 76.00 99.00
C 75.69 95.86 78.55 92.81 77.00 90.00
C 72.00 91.23 75.65 99.66 70.00 99.00
C 70.45 96.47 73.00 90.52 69.00 90.00
C 66.63 92.69 69.01 99.57 64.00 99.00
C 62.30 87.98 70.65 86.46 80.00 88.00
M 83.00 95.00 
C 84.01 98.58 87.54 95.08 89.00 97.00
C 84.94 104.15 75.54 93.29 82.77 88.77 C 90.00 84.25 92.64 96.58 83.00 95.00
M 100.00 88.00 
C 99.58 91.72 101.76 99.37 96.00 99.00
C 96.55 96.36 98.33 92.14 96.00 90.00
C 91.37 91.33 95.18 98.93 90.00 99.00
C 89.52 95.13 91.71 91.95 91.00 88.00
C 94.00 88.00 97.00 88.00 100.00 88.00
M 110.00 88.00 
C 114.82 91.36 108.33 101.97 102.78 98.22 C 97.23 94.47 103.80 83.68 110.00 88.00
M 119.00 88.00 
C 117.20 91.03 113.94 89.97 117.30 93.70 C 120.66 97.44 113.47 100.07 111.00 99.00
C 112.21 95.91 116.71 97.20 112.75 93.25 C 108.79 89.29 116.17 86.65 119.00 88.00
M 138.00 91.00 
C 137.82 91.38 136.09 91.77 136.00 92.00
C 135.54 94.44 137.21 99.30 133.00 99.00
C 132.32 95.06 134.03 91.79 134.00 88.00
C 135.00 88.00 136.00 88.00 137.00 88.00
C 137.50 88.01 138.00 88.00 138.00 88.00
C 140.58 88.86 139.67 90.64 141.00 93.00
C 143.49 92.32 142.99 89.00 145.00 88.00
C 147.81 90.95 150.65 86.80 155.00 88.00
C 156.77 93.30 152.12 93.86 149.00 95.00
C 148.52 99.23 153.15 94.58 154.00 97.00
C 151.21 102.14 143.76 97.04 146.00 92.00
C 143.04 93.76 143.28 99.64 139.00 99.00
C 139.59 96.09 137.41 93.94 138.00 91.00
M 175.00 91.00 
C 179.76 85.00 184.49 91.27 189.00 88.00
C 186.32 92.77 189.45 103.88 181.00 103.00
C 182.90 99.74 185.76 95.73 185.00 91.00
C 184.00 94.42 179.98 93.27 178.00 95.00
C 178.62 98.66 181.94 94.79 183.00 97.00
C 180.80 101.70 173.14 97.82 175.00 93.00
C 173.32 94.86 174.68 100.27 170.00 99.00
C 170.39 95.94 172.50 93.33 172.00 90.00
C 165.79 89.29 170.04 101.29 164.00 98.00
C 165.05 95.52 165.95 92.36 165.00 90.00
C 160.00 91.23 163.65 99.66 158.00 99.00
C 159.35 95.52 158.65 91.50 160.00 88.00
C 164.14 89.86 173.41 84.66 175.00 91.00 Z"/>
</g>
<g fill="#3A743A" fill-opacity="0.75" stroke="None"><path d="
M 1.00 49.00 
C 0.77 54.98 1.00 61.01 1.00 67.00
C 0.86 75.75 3.76 84.49 6.69 92.31 C 9.63 100.12 13.39 104.55 19.25 110.75 C 25.12 116.94 36.04 117.30 43.98 116.98 C 51.91 116.65 58.14 106.40 65.98 111.02 C 73.81 115.65 81.67 116.75 89.98 115.98 C 98.28 115.20 105.01 103.09 97.75 106.75 C 90.49 110.42 82.77 116.21 75.23 110.77 C 67.69 105.33 59.97 104.37 52.75 108.75 C 45.52 113.12 36.79 115.27 29.08 111.92 C 21.36 108.57 17.73 103.62 13.31 96.69 C 8.88 89.77 7.73 81.00 5.93 73.07 C 4.12 65.15 2.91 54.10 5.07 46.07 C 7.23 38.05 10.51 32.12 17.92 27.92 C 25.34 23.72 35.06 23.44 42.99 24.01 C 50.92 24.57 60.09 30.03 65.00 24.00
C 68.60 33.70 85.67 30.18 93.97 26.97 C 102.28 23.77 110.43 16.09 112.00 7.00
C 105.84 11.52 98.07 14.42 90.00 11.00 C 81.93 7.58 72.93 13.55 70.00 20.00
C 67.64 14.44 72.03 7.43 71.00 1.00
C 66.11 -0.11 55.13 0.60 59.23 6.77 C 63.33 12.94 62.26 16.51 61.00 23.00
C 38.47 15.30 2.13 19.26 1.00 49.00
M 65.00 11.00 
C 61.20 3.55 68.29 4.55 65.00 11.00
M 67.00 11.00 
C 67.06 15.33 63.15 12.49 67.00 11.00
M 65.00 24.00 
C 62.21 18.74 68.76 19.21 65.00 24.00 Z"/>
</g>
<g fill="#000000" fill-opacity="0.00" stroke="None"><path d="
M 65.00 11.00 
C 68.29 4.55 61.20 3.55 65.00 11.00 Z"/>
</g>
<g fill="#3B763B" fill-opacity="0.53" stroke="None"><path d="
M 67.00 11.00 
C 63.15 12.49 67.06 15.33 67.00 11.00 Z"/>
</g>
<g fill="#A2C963" fill-opacity="1.00" stroke="None"><path d="
M 103.00 16.00 
C 91.43 15.37 74.18 9.91 71.00 26.00
C 82.43 28.37 95.83 26.15 103.00 16.00 Z"/>
</g>
<g fill="#3A7639" fill-opacity="0.42" stroke="None"><path d="
M 65.00 24.00 
C 68.76 19.21 62.21 18.74 65.00 24.00 Z"/>
</g>
<g fill="#447737" fill-opacity="0.72" stroke="None"><path d="
M 30.00 33.00 
C 23.86 30.96 16.08 30.69 18.00 38.00 C 19.92 45.31 16.97 51.91 18.00 59.00 C 19.03 66.09 17.53 72.34 17.00 79.00
C 26.25 79.72 43.09 83.83 41.00 68.00
C 39.80 72.85 45.93 81.60 50.92 79.92 C 55.91 78.24 63.87 81.40 62.97 74.03 C 62.06 66.67 59.57 63.59 59.99 56.01 C 60.41 48.43 53.53 45.80 47.23 47.23 C 40.93 48.66 41.17 60.12 48.00 59.00
C 46.84 61.93 42.18 63.25 43.00 67.00
C 36.98 56.40 35.00 73.44 28.00 72.00
C 28.88 59.08 25.96 44.90 30.00 33.00
M 53.00 59.00 
C 52.96 58.65 52.35 58.13 52.00 58.00
C 49.37 56.98 51.33 58.12 51.00 56.00
C 50.81 54.77 48.80 53.30 51.00 52.00
C 51.37 51.78 52.00 52.00 52.00 52.00
C 50.89 51.16 49.70 50.68 48.00 51.00
C 49.40 53.56 49.25 57.95 45.00 57.00
C 42.33 50.27 51.08 46.09 55.74 50.26 C 60.41 54.42 57.09 62.87 59.00 68.00 C 60.91 73.13 60.16 81.03 55.25 75.75 C 50.34 70.47 56.54 62.98 53.00 59.00
M 52.00 65.00 
C 52.00 67.67 52.00 70.33 52.00 73.00
C 50.57 71.95 49.77 69.90 50.00 68.00
C 49.73 65.95 49.03 66.48 51.00 65.00
C 51.27 64.80 51.82 64.27 52.00 64.00
C 53.33 60.25 52.03 64.43 52.00 65.00 Z"/>
</g>
<g fill="#427536" fill-opacity="0.72" stroke="None"><path d="
M 89.00 38.00 
C 89.52 44.75 96.46 52.27 97.98 43.02 C 99.49 33.77 92.24 29.57 85.08 32.08 C 77.92 34.59 77.81 41.25 75.93 46.93 C 74.04 52.61 74.24 62.21 75.02 67.98 C 75.81 73.74 80.18 80.78 87.00 80.00 C 93.82 79.22 98.98 76.25 98.00 67.00 C 97.02 57.75 91.78 57.23 90.97 67.97 C 90.17 78.72 82.56 63.01 85.00 58.00 C 87.44 52.99 83.38 41.80 89.00 38.00 Z"/>
</g>
<g fill="#3F7533" fill-opacity="0.64" stroke="None"><path d="
M 130.00 79.00 
C 128.85 69.44 128.28 57.82 129.00 48.00 C 129.72 38.18 129.02 26.36 118.00 36.00
C 121.26 48.65 121.26 65.35 118.00 78.00
C 122.22 80.46 125.69 79.57 130.00 79.00 Z"/>
</g>
<g fill="#437838" fill-opacity="0.71" stroke="None"><path d="
M 182.00 32.00 
C 175.89 30.09 171.24 40.07 177.00 42.00 C 182.75 43.92 187.80 33.81 182.00 32.00 Z"/>
</g>
<g fill="#9BC663" fill-opacity="1.00" stroke="None"><path d="
M 94.00 33.00 
C 73.79 31.94 70.95 66.22 82.93 77.07 C 94.90 87.92 100.23 62.28 93.00 61.00
C 97.36 68.99 85.96 79.07 84.33 68.67 C 82.70 58.27 84.30 52.84 84.67 42.67 C 85.04 32.51 93.87 38.36 94.00 46.00
C 98.43 44.20 94.40 36.73 94.00 33.00 Z"/>
</g>
<g fill="#A4CA66" fill-opacity="1.00" stroke="None"><path d="
M 28.00 34.00 
C 25.00 34.00 22.00 34.00 19.00 34.00
C 20.60 47.77 20.70 63.23 19.00 77.00
C 25.05 77.08 31.31 76.53 37.00 78.00
C 37.28 74.14 40.39 69.36 38.00 66.00
C 33.61 77.50 23.43 74.06 26.00 63.00 C 28.57 51.94 22.64 43.78 28.00 34.00 Z"/>
</g>
<g fill="#9BC463" fill-opacity="1.00" stroke="None"><path d="
M 127.00 34.00 
C 117.16 34.53 123.40 45.78 122.00 53.00 C 120.60 60.22 123.84 70.02 121.00 77.00
C 131.13 78.41 126.07 65.10 127.00 58.00 C 127.93 50.90 126.30 41.32 127.00 34.00 Z"/>
</g>
<g fill="#9EC968" fill-opacity="1.00" stroke="None"><path d="
M 182.00 34.00 
C 178.44 33.50 175.49 36.48 176.00 40.00
C 179.68 40.99 183.01 37.69 182.00 34.00 Z"/>
</g>
<g fill="#366C30" fill-opacity="0.53" stroke="None"><path d="
M 194.00 47.00 
C 193.78 47.37 194.00 48.00 194.00 48.00
C 194.35 48.21 197.65 48.21 198.00 48.00
C 197.75 47.78 198.00 47.00 198.00 47.00
C 197.02 45.87 194.76 45.69 194.00 47.00 Z"/>
</g>
<g fill="#407634" fill-opacity="0.70" stroke="None"><path d="
M 117.00 68.00 
C 115.97 71.87 107.16 83.31 103.25 74.75 C 99.33 66.20 98.87 61.01 103.31 52.31 C 107.74 43.61 115.88 55.80 117.00 60.00
C 116.53 51.27 107.49 41.79 101.92 50.92 C 96.36 60.06 97.14 67.02 102.08 75.92 C 107.02 84.82 116.42 76.52 117.00 68.00 Z"/>
</g>
<g fill="#3F7434" fill-opacity="0.66" stroke="None"><path d="
M 133.00 54.00 
C 133.16 53.77 134.58 53.82 135.00 54.00
C 135.18 42.90 149.03 53.13 147.78 59.22 C 146.53 65.31 148.67 79.44 139.33 77.67 C 129.99 75.89 133.49 61.69 134.00 56.00
C 133.77 55.72 133.12 55.26 133.00 55.00
C 128.97 58.08 128.53 79.60 139.00 80.00 C 149.46 80.39 149.41 66.40 148.99 58.01 C 148.57 49.62 134.26 40.48 133.00 54.00 Z"/>
</g>
<g fill="#417735" fill-opacity="0.72" stroke="None"><path d="
M 171.00 60.00 
C 170.83 59.57 169.14 59.28 169.00 59.00
C 169.00 65.18 169.44 71.23 171.00 77.00
C 158.37 78.25 169.85 58.16 161.00 53.00
C 160.96 53.35 159.08 53.83 159.00 54.00
C 160.05 61.53 157.42 69.89 160.00 77.00
C 147.63 77.98 157.69 59.19 153.00 52.00
C 154.67 50.89 156.13 49.70 158.00 49.00
C 159.11 49.47 159.10 51.14 160.00 52.00
C 160.00 49.42 164.02 48.09 165.74 50.26 C 167.46 52.42 168.03 55.77 169.00 58.00
C 169.12 57.74 169.96 57.35 170.00 57.00
C 172.57 47.21 156.37 43.16 152.26 50.26 C 148.15 57.35 155.40 70.91 151.00 79.00
C 158.40 80.23 165.36 79.00 173.00 79.00
C 172.13 72.66 171.57 66.41 171.00 60.00
M 162.00 56.00 
C 161.83 62.45 164.80 70.12 162.00 76.00
C 160.42 69.99 160.27 61.60 162.00 56.00 Z"/>
</g>
<g fill="#417537" fill-opacity="0.67" stroke="None"><path d="
M 185.00 79.00 
C 184.24 70.70 182.87 63.92 184.00 55.00 C 185.13 46.08 178.54 45.84 173.00 52.00
C 176.98 59.75 174.83 70.55 174.00 79.00
C 177.96 79.45 181.25 79.84 185.00 79.00 Z"/>
</g>
<g fill="#477736" fill-opacity="0.75" stroke="None"><path d="
M 188.00 52.00 
C 188.16 51.77 189.70 52.24 190.00 52.00
C 191.37 50.90 192.77 49.10 194.00 48.00
C 194.00 48.00 193.78 47.37 194.00 47.00
C 191.34 47.01 188.17 49.24 188.00 52.00 Z"/>
</g>
<g fill="#417832" fill-opacity="0.71" stroke="None"><path d="
M 198.00 48.00 
C 202.96 52.45 202.66 57.57 205.00 63.00
C 205.00 58.25 205.90 46.02 198.00 47.00
C 198.00 47.00 197.75 47.78 198.00 48.00 Z"/>
</g>
<g fill="#98C464" fill-opacity="1.00" stroke="None"><path d="
M 190.00 52.00 
C 190.34 52.26 189.87 54.55 190.00 55.00
C 193.75 58.88 194.93 53.77 192.00 51.00
C 199.27 48.02 198.47 59.60 198.99 64.01 C 199.52 68.42 199.74 83.67 206.00 75.00
C 203.28 73.60 203.18 68.09 205.00 66.00
C 204.90 65.03 205.00 63.98 205.00 63.00
C 202.66 57.57 202.96 52.45 198.00 48.00
C 197.65 48.21 194.35 48.21 194.00 48.00
C 192.77 49.10 191.37 50.90 190.00 52.00 Z"/>
</g>
<g fill="#3A713B" fill-opacity="0.24" stroke="None"><path d="
M 0.00 67.00 
C 0.00 67.00 1.00 67.04 1.00 67.00
C 1.00 61.01 0.77 54.98 1.00 49.00
C 1.00 49.00 0.50 49.00 0.00 49.00
L 0.00 67.00 Z"/>
</g>
<g fill="#9AC666" fill-opacity="1.00" stroke="None"><path d="
M 52.00 52.00 
C 54.56 54.26 52.93 56.90 53.00 59.00
C 56.54 62.98 50.34 70.47 55.25 75.75 C 60.16 81.03 60.91 73.13 59.00 68.00 C 57.09 62.87 60.41 54.42 55.74 50.26 C 51.08 46.09 42.33 50.27 45.00 57.00
C 49.25 57.95 49.40 53.56 48.00 51.00
C 49.70 50.68 50.89 51.16 52.00 52.00 Z"/>
</g>
<g fill="#97C364" fill-opacity="1.00" stroke="None"><path d="
M 117.00 68.00 
C 117.18 65.40 117.14 62.60 117.00 60.00
C 115.88 55.80 107.74 43.61 103.31 52.31 C 98.87 61.01 99.33 66.20 103.25 74.75 C 107.16 83.31 115.97 71.87 117.00 68.00
M 104.00 59.00 
C 103.99 58.50 104.00 58.00 104.00 58.00
C 102.42 48.65 109.52 56.84 110.77 60.23 C 112.02 63.62 114.33 74.25 109.32 72.66 C 104.31 71.07 104.08 62.52 104.00 59.00 Z"/>
</g>
<g fill="#9CC665" fill-opacity="1.00" stroke="None"><path d="
M 135.00 54.00 
C 135.26 54.11 135.87 54.73 136.00 55.00
C 141.53 49.78 146.36 68.12 145.00 73.00
C 137.68 73.45 137.07 63.36 136.00 58.00
C 135.71 57.33 134.47 56.58 134.00 56.00
C 133.49 61.69 129.99 75.89 139.33 77.67 C 148.67 79.44 146.53 65.31 147.78 59.22 C 149.03 53.13 135.18 42.90 135.00 54.00 Z"/>
</g>
<g fill="#A2CC68" fill-opacity="1.00" stroke="None"><path d="
M 159.00 54.00 
C 158.85 52.95 157.09 50.73 158.00 49.00
C 156.13 49.70 154.67 50.89 153.00 52.00
C 157.69 59.19 147.63 77.98 160.00 77.00
C 157.42 69.89 160.05 61.53 159.00 54.00 Z"/>
</g>
<g fill="#5B8E45" fill-opacity="1.00" stroke="None"><path d="
M 159.00 54.00 
C 159.08 53.83 160.96 53.35 161.00 53.00
C 160.73 52.80 160.26 52.25 160.00 52.00
C 159.10 51.14 159.11 49.47 158.00 49.00
C 157.09 50.73 158.85 52.95 159.00 54.00 Z"/>
</g>
<g fill="#9EC869" fill-opacity="1.00" stroke="None"><path d="
M 160.00 52.00 
C 160.26 52.25 160.73 52.80 161.00 53.00
C 169.85 58.16 158.37 78.25 171.00 77.00
C 169.44 71.23 169.00 65.18 169.00 59.00
C 169.00 58.50 169.00 58.00 169.00 58.00
C 168.03 55.77 167.46 52.42 165.74 50.26 C 164.02 48.09 160.00 49.42 160.00 52.00 Z"/>
</g>
<g fill="#A0C865" fill-opacity="1.00" stroke="None"><path d="
M 182.00 49.00 
C 179.58 49.02 177.95 50.82 176.00 52.00
C 177.65 59.74 177.65 69.23 176.00 77.00
C 183.96 79.16 181.93 71.34 182.00 66.00 C 182.07 60.66 181.95 54.42 182.00 49.00 Z"/>
</g>
<g fill="#427734" fill-opacity="0.76" stroke="None"><path d="
M 190.00 55.00 
C 189.58 54.56 188.26 53.50 188.00 53.00
C 187.20 56.10 189.58 59.71 193.00 59.00
C 188.18 62.38 183.69 73.46 189.25 77.75 C 194.82 82.03 202.17 78.60 208.00 78.00
L 208.00 77.00
C 206.66 76.53 206.43 73.42 208.00 73.00
L 208.00 72.00
C 205.61 72.03 205.20 67.96 205.00 66.00
C 203.18 68.09 203.28 73.60 206.00 75.00
C 199.74 83.67 199.52 68.42 198.99 64.01 C 198.47 59.60 199.27 48.02 192.00 51.00
C 194.93 53.77 193.75 58.88 190.00 55.00
M 196.00 58.00 
C 195.07 60.90 192.98 56.16 195.00 56.00
C 194.97 52.69 198.17 55.20 196.00 58.00
M 196.00 72.00 
C 194.19 70.17 194.77 66.20 196.00 64.00
C 197.50 65.64 197.72 70.43 196.00 72.00 Z"/>
</g>
<g fill="#39712F" fill-opacity="0.33" stroke="None"><path d="
M 51.00 56.00 
C 51.20 55.69 51.88 55.26 52.00 55.00
C 51.93 54.39 50.86 52.45 51.00 52.00
C 48.80 53.30 50.81 54.77 51.00 56.00 Z"/>
</g>
<g fill="#54833A" fill-opacity="0.97" stroke="None"><path d="
M 52.00 55.00 
C 52.08 55.76 51.67 57.32 52.00 58.00
C 52.35 58.13 52.96 58.65 53.00 59.00
C 52.93 56.90 54.56 54.26 52.00 52.00
C 52.00 52.00 51.37 51.78 51.00 52.00
C 50.86 52.45 51.93 54.39 52.00 55.00 Z"/>
</g>
<g fill="#5C8F44" fill-opacity="0.96" stroke="None"><path d="
M 188.00 53.00 
C 188.26 53.50 189.58 54.56 190.00 55.00
C 189.87 54.55 190.34 52.26 190.00 52.00
C 189.70 52.24 188.16 51.77 188.00 52.00
C 188.00 52.00 188.04 52.50 188.00 53.00 Z"/>
</g>
<g fill="#437630" fill-opacity="0.74" stroke="None"><path d="
M 104.00 58.00 
C 104.16 57.77 105.80 58.24 106.00 58.00
C 107.90 55.65 111.27 66.95 111.00 71.00
C 107.45 68.92 107.56 64.33 106.00 61.00
C 105.66 60.43 104.29 59.55 104.00 59.00
C 104.08 62.52 104.31 71.07 109.32 72.66 C 114.33 74.25 112.02 63.62 110.77 60.23 C 109.52 56.84 102.42 48.65 104.00 58.00 Z"/>
</g>
<g fill="#427832" fill-opacity="0.74" stroke="None"><path d="
M 136.00 55.00 
C 136.31 55.62 135.98 57.29 136.00 58.00
C 137.07 63.36 137.68 73.45 145.00 73.00
C 146.36 68.12 141.53 49.78 136.00 55.00
M 142.00 71.00 
C 139.37 65.97 138.15 60.50 137.00 55.00
C 140.51 58.80 144.52 66.08 142.00 71.00 Z"/>
</g>
<g fill="#64984A" fill-opacity="0.98" stroke="None"><path d="
M 133.00 55.00 
C 133.12 55.26 133.77 55.72 134.00 56.00
C 134.47 56.58 135.71 57.33 136.00 58.00
C 135.98 57.29 136.31 55.62 136.00 55.00
C 135.87 54.73 135.26 54.11 135.00 54.00
C 134.58 53.82 133.16 53.77 133.00 54.00
C 133.00 54.00 132.81 54.59 133.00 55.00 Z"/>
</g>
<g fill="#37693C" fill-opacity="0.19" stroke="None"><path d="
M 195.00 56.00 
C 195.00 56.33 196.34 56.95 196.00 58.00
C 198.17 55.20 194.97 52.69 195.00 56.00 Z"/>
</g>
<g fill="#000000" fill-opacity="0.00" stroke="None"><path d="
M 51.00 56.00 
C 51.33 58.12 49.37 56.98 52.00 58.00
C 51.67 57.32 52.08 55.76 52.00 55.00
C 51.88 55.26 51.20 55.69 51.00 56.00 Z"/>
</g>
<g fill="#000000" fill-opacity="0.00" stroke="None"><path d="
M 142.00 71.00 
C 144.52 66.08 140.51 58.80 137.00 55.00
C 138.15 60.50 139.37 65.97 142.00 71.00 Z"/>
</g>
<g fill="#000000" fill-opacity="0.00" stroke="None"><path d="
M 106.00 58.00 
C 106.28 58.22 105.94 60.60 106.00 61.00
C 107.56 64.33 107.45 68.92 111.00 71.00
C 111.27 66.95 107.90 55.65 106.00 58.00 Z"/>
</g>
<g fill="#000000" fill-opacity="0.00" stroke="None"><path d="
M 162.00 56.00 
C 160.27 61.60 160.42 69.99 162.00 76.00
C 164.80 70.12 161.83 62.45 162.00 56.00 Z"/>
</g>
<g fill="#0C210C" fill-opacity="0.05" stroke="None"><path d="
M 196.00 58.00 
C 196.34 56.95 195.00 56.33 195.00 56.00
C 192.98 56.16 195.07 60.90 196.00 58.00 Z"/>
</g>
<g fill="#297424" fill-opacity="0.25" stroke="None"><path d="
M 169.00 58.00 
C 169.00 58.00 169.00 58.50 169.00 59.00
C 169.14 59.28 170.83 59.57 171.00 60.00
C 170.87 58.59 170.29 57.92 170.00 57.00
C 169.96 57.35 169.12 57.74 169.00 58.00 Z"/>
</g>
<g fill="#366432" fill-opacity="0.30" stroke="None"><path d="
M 104.00 59.00 
C 104.29 59.55 105.66 60.43 106.00 61.00
C 105.94 60.60 106.28 58.22 106.00 58.00
C 105.80 58.24 104.16 57.77 104.00 58.00
C 104.00 58.00 103.99 58.50 104.00 59.00 Z"/>
</g>
<g fill="#9BC665" fill-opacity="1.00" stroke="None"><path d="
M 51.00 60.00 
C 39.42 62.70 44.34 86.42 54.00 74.00
C 44.89 75.66 48.28 64.21 51.00 60.00 Z"/>
</g>
<g fill="#9AC667" fill-opacity="1.00" stroke="None"><path d="
M 196.00 60.00 
C 184.13 61.62 189.60 86.78 199.00 74.00
C 190.03 75.68 192.92 64.11 196.00 60.00 Z"/>
</g>
<g fill="#3C7232" fill-opacity="0.50" stroke="None"><path d="
M 52.00 64.00 
C 52.23 64.36 52.00 65.00 52.00 65.00
C 52.03 64.43 53.33 60.25 52.00 64.00 Z"/>
</g>
<g fill="#000000" fill-opacity="0.00" stroke="None"><path d="
M 51.00 65.00 
C 50.85 65.49 50.02 67.87 50.00 68.00
C 49.77 69.90 50.57 71.95 52.00 73.00
C 52.00 70.33 52.00 67.67 52.00 65.00
C 52.00 65.00 52.23 64.36 52.00 64.00
C 51.82 64.27 51.27 64.80 51.00 65.00 Z"/>
</g>
<g fill="#000000" fill-opacity="0.00" stroke="None"><path d="
M 196.00 72.00 
C 197.72 70.43 197.50 65.64 196.00 64.00
C 194.77 66.20 194.19 70.17 196.00 72.00 Z"/>
</g>
<g fill="#396B32" fill-opacity="0.25" stroke="None"><path d="
M 50.00 68.00 
C 50.02 67.87 50.85 65.49 51.00 65.00
C 49.03 66.48 49.73 65.95 50.00 68.00 Z"/>
</g>
<g fill="#3C7538" fill-opacity="0.42" stroke="None"><path d="
M 208.00 77.00 
L 208.00 73.00
C 206.43 73.42 206.66 76.53 208.00 77.00 Z"/>
</g>
<g fill="#E77238" fill-opacity="0.58" stroke="None"><path d="
M 31.00 89.00 
C 30.56 84.07 26.38 83.27 22.00 84.00
C 20.27 88.83 20.26 94.07 19.00 99.00
C 23.83 98.36 22.41 91.07 29.00 92.00
C 25.81 99.73 37.34 101.34 39.00 96.00
C 40.51 97.60 42.28 99.48 45.00 99.00
C 44.14 102.13 40.97 100.43 39.00 100.00
C 41.58 108.55 51.34 98.69 50.00 93.00
C 48.14 99.93 55.20 98.52 59.00 99.00
C 59.05 95.14 61.31 91.92 61.00 88.00
C 56.44 87.28 52.49 88.48 50.00 92.00
C 53.05 84.30 38.91 88.22 39.00 94.00
C 42.01 87.57 35.87 86.52 31.00 89.00
M 26.00 86.00 
C 28.75 87.32 25.81 92.67 23.00 91.00
C 23.93 89.86 24.08 88.45 24.00 87.00
C 20.82 86.46 28.92 83.54 26.00 86.00
M 32.00 97.00 
C 31.76 94.42 32.45 91.14 35.00 90.00
C 37.53 91.97 35.40 97.31 32.00 97.00
M 47.00 90.00 
C 47.19 92.78 45.56 95.81 43.00 97.00
C 41.16 93.90 43.14 89.95 47.00 90.00
M 58.00 90.00 
C 58.14 92.76 56.13 95.53 54.00 97.00
C 52.08 94.25 54.42 89.79 58.00 90.00 Z"/>
</g>
<g fill="#E5753C" fill-opacity="0.56" stroke="None"><path d="
M 128.00 93.00 
C 127.36 97.49 126.95 91.76 127.00 92.00
C 125.39 89.67 126.17 86.72 126.00 84.00
C 119.25 84.86 126.13 94.23 124.00 99.00
C 132.11 99.56 130.34 84.64 138.00 86.00
C 132.76 78.32 130.33 90.04 128.00 93.00 Z"/>
</g>
<g fill="#DE7742" fill-opacity="0.41" stroke="None"><path d="
M 189.00 84.00 
C 187.88 82.88 184.70 85.05 186.32 86.66 C 187.94 88.27 190.21 85.21 189.00 84.00 Z"/>
</g>
<g fill="#FC6E39" fill-opacity="0.81" stroke="None"><path d="
M 24.00 87.00 
C 24.71 85.82 25.15 86.72 26.00 86.00
C 28.92 83.54 20.82 86.46 24.00 87.00 Z"/>
</g>
<g fill="#000000" fill-opacity="0.00" stroke="None"><path d="
M 24.00 87.00 
C 24.08 88.45 23.93 89.86 23.00 91.00
C 25.81 92.67 28.75 87.32 26.00 86.00
C 25.15 86.72 24.71 85.82 24.00 87.00 Z"/>
</g>
<g fill="#EB7238" fill-opacity="0.57" stroke="None"><path d="
M 199.00 94.00 
C 200.94 87.84 194.39 86.16 190.75 88.75 C 187.12 91.35 188.29 101.20 193.92 98.92 C 199.56 96.65 197.27 95.41 202.00 99.00
C 200.00 93.33 206.63 91.20 207.00 87.00
C 201.97 86.89 200.50 90.17 199.00 94.00
M 196.00 90.00 
C 196.56 92.90 195.61 97.06 192.00 97.00
C 191.72 94.03 191.51 89.00 196.00 90.00 Z"/>
</g>
<g fill="#E77338" fill-opacity="0.57" stroke="None"><path d="
M 80.00 88.00 
C 70.65 86.46 62.30 87.98 64.00 99.00
C 69.01 99.57 66.63 92.69 69.00 90.00
C 73.00 90.52 70.45 96.47 70.00 99.00
C 75.65 99.66 72.00 91.23 77.00 90.00
C 78.55 92.81 75.69 95.86 76.00 99.00
C 81.76 99.37 79.58 91.72 80.00 88.00 Z"/>
</g>
<g fill="#EC753A" fill-opacity="0.62" stroke="None"><path d="
M 83.00 95.00 
C 92.64 96.58 90.00 84.25 82.77 88.77 C 75.54 93.29 84.94 104.15 89.00 97.00
C 87.54 95.08 84.01 98.58 83.00 95.00
M 88.00 90.00 
C 85.72 94.57 82.30 89.25 88.00 90.00 Z"/>
</g>
<g fill="#EC733B" fill-opacity="0.58" stroke="None"><path d="
M 100.00 88.00 
C 97.00 88.00 94.00 88.00 91.00 88.00
C 91.71 91.95 89.52 95.13 90.00 99.00
C 95.18 98.93 91.37 91.33 96.00 90.00
C 98.33 92.14 96.55 96.36 96.00 99.00
C 101.76 99.37 99.58 91.72 100.00 88.00 Z"/>
</g>
<g fill="#E87339" fill-opacity="0.60" stroke="None"><path d="
M 110.00 88.00 
C 103.80 83.68 97.23 94.47 102.78 98.22 C 108.33 101.97 114.82 91.36 110.00 88.00
M 108.00 90.00 
C 108.56 92.90 107.61 97.06 104.00 97.00
C 103.72 94.03 103.51 89.00 108.00 90.00 Z"/>
</g>
<g fill="#EB753D" fill-opacity="0.59" stroke="None"><path d="
M 119.00 88.00 
C 116.17 86.65 108.79 89.29 112.75 93.25 C 116.71 97.20 112.21 95.91 111.00 99.00
C 113.47 100.07 120.66 97.44 117.30 93.70 C 113.94 89.97 117.20 91.03 119.00 88.00 Z"/>
</g>
<g fill="#E9743B" fill-opacity="0.57" stroke="None"><path d="
M 136.00 92.00 
C 136.23 90.77 136.71 89.32 137.00 88.00
C 136.00 88.00 135.00 88.00 134.00 88.00
C 134.03 91.79 132.32 95.06 133.00 99.00
C 137.21 99.30 135.54 94.44 136.00 92.00 Z"/>
</g>
<g fill="#EA6E33" fill-opacity="0.08" stroke="None"><path d="
M 136.00 92.00 
C 136.09 91.77 137.82 91.38 138.00 91.00
C 137.99 90.59 138.27 88.25 138.00 88.00
C 138.00 88.00 137.50 88.01 137.00 88.00
C 136.71 89.32 136.23 90.77 136.00 92.00 Z"/>
</g>
<g fill="#E5753E" fill-opacity="0.64" stroke="None"><path d="
M 138.00 91.00 
C 137.41 93.94 139.59 96.09 139.00 99.00
C 143.28 99.64 143.04 93.76 146.00 92.00
C 143.76 97.04 151.21 102.14 154.00 97.00
C 153.15 94.58 148.52 99.23 149.00 95.00
C 152.12 93.86 156.77 93.30 155.00 88.00
C 150.65 86.80 147.81 90.95 145.00 88.00
C 142.99 89.00 143.49 92.32 141.00 93.00
C 139.67 90.64 140.58 88.86 138.00 88.00
C 138.27 88.25 137.99 90.59 138.00 91.00
M 153.00 90.00 
C 150.72 94.57 147.30 89.25 153.00 90.00
M 141.00 93.00 
C 141.58 93.05 142.25 95.18 140.87 94.92 C 139.48 94.65 140.11 92.92 141.00 93.00 Z"/>
</g>
<g fill="#EB743A" fill-opacity="0.59" stroke="None"><path d="
M 175.00 91.00 
C 173.41 84.66 164.14 89.86 160.00 88.00
C 158.65 91.50 159.35 95.52 158.00 99.00
C 163.65 99.66 160.00 91.23 165.00 90.00
C 165.95 92.36 165.05 95.52 164.00 98.00
C 170.04 101.29 165.79 89.29 172.00 90.00
C 172.50 93.33 170.39 95.94 170.00 99.00
C 174.68 100.27 173.32 94.86 175.00 93.00
C 173.14 97.82 180.80 101.70 183.00 97.00
C 181.94 94.79 178.62 98.66 178.00 95.00
C 179.98 93.27 184.00 94.42 185.00 91.00
C 185.76 95.73 182.90 99.74 181.00 103.00
C 189.45 103.88 186.32 92.77 189.00 88.00
C 184.49 91.27 179.76 85.00 175.00 91.00
M 182.00 90.00 
C 179.72 94.57 176.30 89.25 182.00 90.00 Z"/>
</g>
<g fill="#000000" fill-opacity="0.00" stroke="None"><path d="
M 32.00 97.00 
C 35.40 97.31 37.53 91.97 35.00 90.00
C 32.45 91.14 31.76 94.42 32.00 97.00 Z"/>
</g>
<g fill="#000000" fill-opacity="0.00" stroke="None"><path d="
M 47.00 90.00 
C 43.14 89.95 41.16 93.90 43.00 97.00
C 45.56 95.81 47.19 92.78 47.00 90.00 Z"/>
</g>
<g fill="#000000" fill-opacity="0.00" stroke="None"><path d="
M 58.00 90.00 
C 54.42 89.79 52.08 94.25 54.00 97.00
C 56.13 95.53 58.14 92.76 58.00 90.00 Z"/>
</g>
<g fill="#000000" fill-opacity="0.00" stroke="None"><path d="
M 88.00 90.00 
C 82.30 89.25 85.72 94.57 88.00 90.00 Z"/>
</g>
<g fill="#000000" fill-opacity="0.00" stroke="None"><path d="
M 108.00 90.00 
C 103.51 89.00 103.72 94.03 104.00 97.00
C 107.61 97.06 108.56 92.90 108.00 90.00 Z"/>
</g>
<g fill="#000000" fill-opacity="0.00" stroke="None"><path d="
M 153.00 90.00 
C 147.30 89.25 150.72 94.57 153.00 90.00 Z"/>
</g>
<g fill="#000000" fill-opacity="0.00" stroke="None"><path d="
M 182.00 90.00 
C 176.30 89.25 179.72 94.57 182.00 90.00 Z"/>
</g>
<g fill="#000000" fill-opacity="0.00" stroke="None"><path d="
M 196.00 90.00 
C 191.51 89.00 191.72 94.03 192.00 97.00
C 195.61 97.06 196.56 92.90 196.00 90.00 Z"/>
</g>
<g fill="#F56F31" fill-opacity="0.27" stroke="None"><path d="
M 128.00 93.00 
C 127.95 93.06 127.20 92.32 127.00 92.00
C 126.95 91.76 127.36 97.49 128.00 93.00 Z"/>
</g>
<g fill="#F17138" fill-opacity="0.38" stroke="None"><path d="
M 141.00 93.00 
C 140.11 92.92 139.48 94.65 140.87 94.92 C 142.25 95.18 141.58 93.05 141.00 93.00 Z"/>
</g>
</svg>